<svg id="Layer_1" data-name="Layer 1" xmlns="http://www.w3.org/2000/svg" viewBox="0 0 16 16"><defs><style>.cls-1{fill:#fbb03b;}.cls-2{fill:#eda03a;}.cls-3{fill:#f9803d;}.cls-4{fill:#563b00;}.cls-5{fill:#fff;}</style></defs><title>favicon</title><rect class="cls-1" width="16" height="16" rx="4" ry="4"/><path class="cls-2" d="M12,0H10.32a4,4,0,0,1,4,4v8a4,4,0,0,1-4,4H12a4,4,0,0,0,4-4V4A4,4,0,0,0,12,0Z"/><ellipse class="cls-3" cx="2.64" cy="6.22" rx="1.5" ry="0.69"/><circle class="cls-4" cx="4.59" cy="5.02" r="1.1"/><ellipse class="cls-3" cx="13.36" cy="6.22" rx="1.5" ry="0.69"/><circle class="cls-4" cx="11.41" cy="5.02" r="1.1"/><path class="cls-5" d="M5.16,6.9c0,.12,0,.23,0,.36a2.86,2.86,0,0,0,5.72,0,2.19,2.19,0,0,0,0-.36Z"/><path class="cls-3" d="M9.21,11.79c0-.31-.54-.56-1.21-.56s-1.21.25-1.21.56.54.26,1.21.26S9.21,12.1,9.21,11.79Z"/></svg>