<svg width="21px" height="21px" viewBox="0 0 21 21" version="1.1" xmlns="http://www.w3.org/2000/svg">
    <g id="New-Application---review" stroke="none" stroke-width="1" fill="none" fill-rule="evenodd">
        <g id="submit-button" transform="translate(-42.000000, -12.000000)" fill="#FFFFFF">
            <g id="Group">
                <g id="Group-4" transform="translate(42.500000, 12.000000)">
                    <path d="M15.7616513,18.9779346 L9.81947664,15.3212057 L18.7221916,3.46732575 L15.7616513,18.9779346 Z M6.21720218,18.1662743 L6.21720218,13.7426519 L15.9223583,5.24393114 C15.7091891,5.52776612 6.47103644,17.8282974 6.21720218,18.1662743 Z M5.6006248,12.7249711 L2.1462836,10.5992167 L15.9322414,3.67764333 L5.6006248,12.7249711 Z M19.5030307,0.573584019 L0.681013849,10.0236559 C0.491087389,10.1190098 0.367685973,10.3097175 0.358545127,10.5219882 C0.349404281,10.7342981 0.455852164,10.9349279 0.636872159,11.0462978 L5.04541608,13.7592539 L5.04541608,19.922098 C5.04541608,20.1742134 5.20666998,20.398086 5.44585544,20.4778926 C5.68507996,20.5576993 5.9484457,20.4755488 6.09981654,20.2739424 L9.1127799,16.262244 L15.8709118,20.4210944 C16.0349392,20.5220343 16.2381472,20.5359409 16.4143624,20.4582047 C16.5906167,20.3805075 16.7174166,20.2211286 16.7535503,20.0319053 L20.346723,1.20684149 C20.3479339,1.20059134 20.3490668,1.19434119 20.3500824,1.18805198 C20.4269593,0.713548335 19.9291348,0.354047469 19.5030307,0.573584019 Z" id="Fill-1"></path>
                </g>
            </g>
        </g>
    </g>
</svg>