<svg data-name="Layer 1" xmlns="http://www.w3.org/2000/svg" viewBox="0 0 160.5 130.83"><title>dashboard-advisor</title><path fill="#deb48a" d="M38.9 70.33h23.7v26H38.9z"/><path d="M94.5 64.83a4.1 4.1 0 0 0 4.2 4.2h57.6a4.1 4.1 0 0 0 4.2-4.2v-45.4a4.1 4.1 0 0 0-4.2-4.2H98.7a4.1 4.1 0 0 0-4.2 4.2v45.4z" fill="#a5ddee"/><path fill="#fff" d="M108.4 48.03h39.2v4.7h-39.2zM108.4 38.53h38.3v4.8h-38.3zM108.4 29.03h38.3v4.7h-38.3z"/><path fill="#a5ddee" d="M108.4 82.13v-13.1h13.1l-13.1 13.1z"/><path d="M36.1 85.83s-22.5 3.3-25.8 6.8c-2.9 3-8.9 31.9-10.3 38.2h50.9v-43.8z" fill="#e7e7e7"/><path d="M65.5 85.83s22.5 3.3 25.8 6.8c2.9 3 8.9 31.9 10.3 38.2H50.7v-43.8z" fill="#f2f2f2"/><path fill="#be202e" d="M49.2 91.33l-5.1 30.8 6.7 8.6 6.7-8.6-5.2-30.8h-3.1z"/><path d="M54.8 91.13l-4 4-4-4 4-4z" fill="#be202e"/><path fill="#fff" d="M50.8 87.03l-12.1-4.8-2.9 3 6 13.3 9-11.5zM50.8 87.03l12-4.8 3 3-6 13.3-9-11.5z"/><path fill="#7f97a3" d="M61.8 115.73h15v3.3h-15z"/><path d="M81 37.13h-.5c-1-28.6-18.5-34.8-29.7-34.8s-28.7 6.2-29.7 34.8h-.5c-3.4.5-5.7 4.8-5.2 9.7s3.6 8.5 7 8a2.35 2.35 0 0 0 .8-.2 44.62 44.62 0 0 0 8.1 15.5c2.3 2.9 13.4 11.1 19.5 11.1s17.2-8.2 19.5-11.1a44.62 44.62 0 0 0 8.1-15.5 2.35 2.35 0 0 0 .8.2c3.3.5 6.5-3.1 7-8s-1.8-9.2-5.2-9.7z" fill="#f2d0ad"/><path d="M50.8 2.33c-11.5 0-29.7 6.5-29.7 37.2 0 17.7 7.7 27.4 10.2 30.6 2.3 2.9 13.4 11.1 19.5 11.1V2.33z" fill="#f2d8bc"/><path d="M56.6 70.23a7 7 0 0 1-5.8 2.8 6.84 6.84 0 0 1-5.8-2.8h11.6z" fill="#fff"/><path d="M82.6 39.13a57.23 57.23 0 0 0 1-14 38.71 38.71 0 0 0-1.2-8.1c-3.2-19.7-46.6-19.7-55.7-13a36.8 36.8 0 0 0-6.3 12.3 45.41 45.41 0 0 0-1.1 7.9 52.2 52.2 0 0 0 1.1 13.7s5.7-3.2 5.7 11h1s.6-12.3 1.2-20.9c2.4 0 6.3-.1 8.6-.2 10.3-1 21-1 30.7-6.7 6.8-4 7.3 9.9 7.3 12.9v12.8a2.83 2.83 0 0 0 .4 1.8c.4.5 2.9-3.1 3.7-5.8s1.7-5.7 3.6-3.7z" fill="#424143"/><path d="M15.4 46.83c-.5-4.9 1.8-9.2 5.2-9.7s6.5 3.1 7 8-1.8 9.2-5.2 9.7-6.5-3.1-7-8z" fill="#f2d8bc"/></svg>